<svg width="30" height="30" viewBox="0 0 30 30" fill="none" xmlns="http://www.w3.org/2000/svg">
<path d="M16.25 10.4125C17.3125 10.0375 18.1625 9.1875 18.5375 8.125H22.5L18.75 16.875C18.75 18.95 20.7125 20.625 23.125 20.625C25.5375 20.625 27.5 18.95 27.5 16.875L23.75 8.125H26.25V5.625H18.5375C18.025 4.1625 16.6375 3.125 15 3.125C13.3625 3.125 11.975 4.1625 11.4625 5.625H3.75V8.125H6.25L2.5 16.875C2.5 18.95 4.4625 20.625 6.875 20.625C9.2875 20.625 11.25 18.95 11.25 16.875L7.5 8.125H11.4625C11.8375 9.1875 12.6875 10.0375 13.75 10.4125V24.375H2.5V26.875H27.5V24.375H16.25V10.4125ZM25.4625 16.875H20.7875L23.125 11.425L25.4625 16.875ZM9.2125 16.875H4.5375L6.875 11.425L9.2125 16.875ZM15 8.125C14.3125 8.125 13.75 7.5625 13.75 6.875C13.75 6.1875 14.3125 5.625 15 5.625C15.6875 5.625 16.25 6.1875 16.25 6.875C16.25 7.5625 15.6875 8.125 15 8.125Z" fill="white"/>
</svg>
