<svg width="30" height="30" viewBox="0 0 30 30" fill="none" xmlns="http://www.w3.org/2000/svg">
<path d="M20 15.625C16.55 15.625 13.75 18.425 13.75 21.875C13.75 25.325 16.55 28.125 20 28.125C23.45 28.125 26.25 25.325 26.25 21.875C26.25 18.425 23.45 15.625 20 15.625ZM22.0625 24.8125L19.375 22.125V18.125H20.625V21.6125L22.9375 23.925L22.0625 24.8125ZM21.25 4.375H17.275C16.75 2.925 15.375 1.875 13.75 1.875C12.125 1.875 10.75 2.925 10.225 4.375H6.25C4.875 4.375 3.75 5.5 3.75 6.875V25.625C3.75 27 4.875 28.125 6.25 28.125H13.8875C13.15 27.4125 12.55 26.5625 12.1125 25.625H6.25V6.875H8.75V10.625H18.75V6.875H21.25V13.225C22.1375 13.35 22.975 13.6125 23.75 13.975V6.875C23.75 5.5 22.625 4.375 21.25 4.375ZM13.75 6.875C13.0625 6.875 12.5 6.3125 12.5 5.625C12.5 4.9375 13.0625 4.375 13.75 4.375C14.4375 4.375 15 4.9375 15 5.625C15 6.3125 14.4375 6.875 13.75 6.875Z" fill="white"/>
</svg>
