<svg width="30" height="30" viewBox="0 0 30 30" fill="none" xmlns="http://www.w3.org/2000/svg">
<path d="M11.2508 16.875C14.0133 16.875 16.2508 14.6375 16.2508 11.875C16.2508 9.1125 14.0133 6.875 11.2508 6.875C8.48828 6.875 6.25078 9.1125 6.25078 11.875C6.25078 14.6375 8.48828 16.875 11.2508 16.875ZM11.2508 9.375C12.6258 9.375 13.7508 10.5 13.7508 11.875C13.7508 13.25 12.6258 14.375 11.2508 14.375C9.87578 14.375 8.75078 13.25 8.75078 11.875C8.75078 10.5 9.87578 9.375 11.2508 9.375ZM11.2508 19.375C7.91328 19.375 1.25078 21.05 1.25078 24.375V26.875H21.2508V24.375C21.2508 21.05 14.5883 19.375 11.2508 19.375ZM3.75078 24.375C4.02578 23.475 7.88828 21.875 11.2508 21.875C14.6258 21.875 18.5008 23.4875 18.7508 24.375H3.75078ZM18.8508 9.4375C19.9008 10.9125 19.9008 12.825 18.8508 14.3L20.9508 16.4125C23.4758 13.8875 23.4758 10.075 20.9508 7.325L18.8508 9.4375ZM25.0883 3.125L23.0508 5.1625C26.5133 8.9375 26.5133 14.6125 23.0508 18.5875L25.0883 20.625C29.9633 15.7625 29.9758 8.1875 25.0883 3.125Z" fill="white"/>
</svg>
